<svg xmlns="http://www.w3.org/2000/svg" viewBox="0 0 480.81 336.74">
  <path fill="#1c4f9e" d="M400.62,205.92c8.78-.88,17.79-.4,26.66.6,7.8.77,62.03,7.83,40.29,17.32-16.48,5.41-34.69,4.5-51.56,8.78-8.05,1.84-15.93,4.5-23.35,8.13-28.49,13.69-46.01,41.04-71.9,58.46-78.04,54.3-183.87,12.21-251-44.63-6.62-5.1-13.38-9.75-21.32-12.04-4.65-1.35-9.58-1.67-14.4-1.15-7.72.79-15.97,3.75-21.6,4.29-13.09,1.83-7.2-11.52-1.41-18.74,30.06-37.13,81.64-14.64,116.54,3.01,50.3,26.24,110.68,55.31,166.84,29.74,35.03-16.08,65.7-49.73,106.03-53.73l.19-.02Z"/>
  <path fill="#1c4f9e" d="M411.12,145.84c8.06.11,18.42,1.48,23.63,4.14,10.3,5.11,1.55,10.71-7.85,13.22-12.65,3.43-26,4.63-38.81,8.13-60.64,14.11-79.99,70.69-141.32,76.14-42.21,4.29-84.25-10.39-118.68-33.45-10.53-7.02-20.68-14.92-31.55-21.37-11.8-7.05-24.93-12.19-38.81-11.62-9.81-.17-25,5.7-31.41,1.58-4.92-4.75,3.95-14.66,9.14-18.92,21.99-17.38,53.22-17.5,79.54-11.42,27.53,6.21,50.33,23.81,75.97,34.02,9,3.61,18.03,6.33,27.87,8.15,80.74,15.02,108.11-50.44,192.09-48.6h.21Z"/>
  <path fill="#1c4f9e" d="M128.54,95.8c21.08-.18,41.13,8.29,60.1,16.73,44.75,20.51,63.88,20.25,109.24,2.2,21.07-7.53,42.82-13.19,65.14-15.29,11.43-.91,25.22-1.87,36.15,1.25,4.39,1.47,6.97,3.02,5.3,6.05-4.19,5.18-15.16,8.43-22.77,11.26-17.96,6.43-36.59,11.96-52.99,21.55-17.08,9.87-32.79,23.73-51.12,31-28.78,11.7-62.74,5.83-90.42-7.43-11.48-5.51-21.99-12.86-32.05-20.58-12.35-9.45-24.45-18.86-39.8-21.62-9.64-2.01-19.08-.88-27.66-4.54-8.57-4.82,4.13-12.29,8.96-14.35,9.83-4.32,21.26-6.09,31.72-6.21h.21Z"/>
  <path fill="#1c4f9e" d="M243.8,6.38c27.49.33,54.96,29.35,50.72,57.37-5.97,49.76-87.61,44.2-96.98-1.17-6.16-27.99,17.88-56.24,46.07-56.21h.19ZM225.53,64.2c10.19,11.4,30.53,11.1,40.19-.87,15.6-19.11-9.89-45.22-30.82-36.72-14.92,5.74-20.86,25.37-9.5,37.44l.13.15Z"/>
  <path fill="#fff" d="M225.39,64.06c-11.36-12.08-5.42-31.7,9.5-37.44,20.94-8.5,46.43,17.61,30.82,36.72-9.65,11.97-30,12.28-40.19.87l-.13-.15Z"/>
</svg>
