<?xml version="1.0" encoding="UTF-8"?>
<svg id="Ebene_1" data-name="Ebene 1" xmlns="http://www.w3.org/2000/svg" viewBox="0 0 480.81 336.74">
  <defs>
    <style>
      .cls-1 {
        fill: #fff;
      }

      .cls-2 {
        fill: #1c4f9e;
      }
    </style>
  </defs>
  <path class="cls-1" d="M480.09,1.13c.76,1.58.66,3.58.69,5.51.02,9.06,0,31.17,0,59.92-.09,75.68.16,193.97-.08,266.4-.14,2.19-.51,3.05-1.73,3.4-41.73.86-423.06-.05-472.65.27-1.02,0-1.89,0-2.61-.04-1.42-.06-2.29-.23-2.8-.8-.55-.82-.74-1.77-.76-2.94-.38-9.08.12-23.41-.08-47.03C.02,216.28.1,40.96.07,7.6-.06,5.59.16,3.6.39,2.04c.24-.93.67-1.39,1.47-1.63,82.53-.95,236.56.09,366.44-.28,55.33.02,97.64-.03,108.41.02,1.4.02,2.56.04,3.38.95l.02.02ZM243.61,6.38c-28.19-.03-52.23,28.22-46.07,56.21,9.38,45.36,91.02,50.93,96.98,1.16,4.24-28.02-23.23-57.04-50.72-57.37h-.19ZM128.33,95.8c-10.46.12-21.89,1.89-31.72,6.21-4.99,2.1-17.44,9.53-8.96,14.35,2.35,1.18,5.16,1.74,7.86,2.17,8.26,1.23,18.84,1.28,27.36,4.34,15.84,5.27,28.35,17.35,42.05,26.9,14.6,10.5,31.03,18.53,48.5,22.98,40.49,10.35,67,.92,99.49-23.06,11.96-8.35,24.06-15.4,37.75-20.58,9.79-3.84,20.97-7.55,31.05-11.12,7.62-2.82,18.68-6.09,22.77-11.26,1.99-3.44-2.27-5.05-5.3-6.05-10.95-3.12-24.73-2.17-36.15-1.25-24.01,2.26-47.35,8.64-69.89,17.03-42.4,17.12-63.37,14.92-104.48-3.93-18.98-8.44-39.03-16.91-60.1-16.73h-.21ZM410.92,145.83c-83.99-1.85-111.35,63.62-192.09,48.6-9.84-1.82-18.87-4.54-27.87-8.15-25.64-10.21-48.45-27.81-75.97-34.02-26.32-6.07-57.55-5.96-79.54,11.42-5.3,4.36-13.96,14.07-9.14,18.92,6.35,4.12,21.72-1.76,31.41-1.58,13.88-.57,27.01,4.58,38.81,11.62,10.87,6.46,21.02,14.35,31.55,21.37,34.43,23.06,76.47,37.74,118.68,33.45,61.33-5.45,80.68-62.02,141.32-76.14,12.81-3.51,26.16-4.7,38.81-8.13,9.3-2.45,18.2-8.16,7.85-13.22-5.19-2.66-15.57-4.03-23.63-4.14h-.21ZM400.43,205.94c-40.33,4-70.99,37.65-106.03,53.73-56.18,25.56-116.52-3.5-166.84-29.74-34.89-17.66-86.51-40.13-116.54-3.01-5.65,7.1-11.79,20.6,1.41,18.74,5.63-.54,13.88-3.5,21.6-4.29,4.82-.52,9.74-.2,14.4,1.15,7.95,2.29,14.7,6.94,21.32,12.04,67.12,56.84,172.98,98.93,251,44.63,25.89-17.41,43.41-44.77,71.9-58.46,7.42-3.63,15.31-6.29,23.35-8.13,16.87-4.27,35.09-3.37,51.56-8.78,22.07-9.57-33.7-16.68-40.29-17.32-8.87-1-17.88-1.48-26.66-.6l-.19.02Z"/>
  <path class="cls-2" d="M400.62,205.92c8.78-.88,17.79-.4,26.66.6,7.8.77,62.03,7.83,40.29,17.32-16.48,5.41-34.69,4.5-51.56,8.78-8.05,1.84-15.93,4.5-23.35,8.13-28.49,13.69-46.01,41.04-71.9,58.46-78.04,54.3-183.87,12.21-251-44.63-6.62-5.1-13.38-9.75-21.32-12.04-4.65-1.35-9.58-1.67-14.4-1.15-7.72.79-15.97,3.75-21.6,4.29-13.09,1.83-7.2-11.52-1.41-18.74,30.06-37.13,81.64-14.64,116.54,3.01,50.3,26.24,110.68,55.31,166.84,29.74,35.03-16.08,65.7-49.73,106.03-53.73l.19-.02Z"/>
  <path class="cls-2" d="M411.12,145.84c8.06.11,18.42,1.48,23.63,4.14,10.3,5.11,1.55,10.71-7.85,13.22-12.65,3.43-26,4.63-38.81,8.13-60.64,14.11-79.99,70.69-141.32,76.14-42.21,4.29-84.25-10.39-118.68-33.45-10.53-7.02-20.68-14.92-31.55-21.37-11.8-7.05-24.93-12.19-38.81-11.62-9.81-.17-25,5.7-31.41,1.58-4.92-4.75,3.95-14.66,9.14-18.92,21.99-17.38,53.22-17.5,79.54-11.42,27.53,6.21,50.33,23.81,75.97,34.02,9,3.61,18.03,6.33,27.87,8.15,80.74,15.02,108.11-50.44,192.09-48.6h.21Z"/>
  <path class="cls-2" d="M128.54,95.8c21.08-.18,41.13,8.29,60.1,16.73,44.75,20.51,63.88,20.25,109.24,2.2,21.07-7.53,42.82-13.19,65.14-15.29,11.43-.91,25.22-1.87,36.15,1.25,4.39,1.47,6.97,3.02,5.3,6.05-4.19,5.18-15.16,8.43-22.77,11.26-17.96,6.43-36.59,11.96-52.99,21.55-17.08,9.87-32.79,23.73-51.12,31-28.78,11.7-62.74,5.83-90.42-7.43-11.48-5.51-21.99-12.86-32.05-20.58-12.35-9.45-24.45-18.86-39.8-21.62-9.64-2.01-19.08-.88-27.66-4.54-8.57-4.82,4.13-12.29,8.96-14.35,9.83-4.32,21.26-6.09,31.72-6.21h.21Z"/>
  <path class="cls-2" d="M243.8,6.38c27.49.33,54.96,29.35,50.72,57.37-5.97,49.76-87.61,44.2-96.98-1.17-6.16-27.99,17.88-56.24,46.07-56.21h.19ZM225.53,64.2c10.19,11.4,30.53,11.1,40.19-.87,15.6-19.11-9.89-45.22-30.82-36.72-14.92,5.74-20.86,25.37-9.5,37.44l.13.15Z"/>
  <path class="cls-1" d="M225.39,64.06c-11.36-12.08-5.42-31.7,9.5-37.44,20.94-8.5,46.43,17.61,30.82,36.72-9.65,11.97-30,12.28-40.19.87l-.13-.15Z"/>
</svg>